<svg width="22" height="22" viewBox="0 0 22 22" fill="none" xmlns="http://www.w3.org/2000/svg">
<rect width="22" height="22" rx="11" fill="white"/>
<path d="M12.2949 16.6175C11.6065 16.6175 10.6323 16.1333 9.86235 13.8175L9.44235 12.5575L8.18235 12.1375C5.87235 11.3675 5.38818 10.3933 5.38818 9.70498C5.38818 9.02248 5.87235 8.04248 8.18235 7.26665L13.1349 5.61581C14.3715 5.20165 15.404 5.32415 16.0398 5.95415C16.6757 6.58415 16.7982 7.62248 16.384 8.85915L14.7332 13.8116C13.9573 16.1333 12.9832 16.6175 12.2949 16.6175ZM8.45652 8.10081C6.83485 8.64331 6.25735 9.28498 6.25735 9.70498C6.25735 10.125 6.83485 10.7666 8.45652 11.3033L9.92652 11.7933C10.0549 11.8341 10.1599 11.9391 10.2007 12.0675L10.6907 13.5375C11.2274 15.1591 11.8749 15.7366 12.2949 15.7366C12.7148 15.7366 13.3565 15.1591 13.899 13.5375L15.5498 8.58498C15.8473 7.68665 15.7948 6.95165 15.4157 6.57248C15.0365 6.19331 14.3015 6.14665 13.409 6.44415L8.45652 8.10081Z" fill="#8807F7"/>
<path d="M9.89747 12.4C9.78663 12.4 9.6758 12.3592 9.5883 12.2717C9.41913 12.1025 9.41913 11.8225 9.5883 11.6534L11.6766 9.55919C11.8458 9.39002 12.1258 9.39002 12.295 9.55919C12.4641 9.72835 12.4641 10.0084 12.295 10.1775L10.2066 12.2717C10.125 12.3592 10.0083 12.4 9.89747 12.4Z" fill="#8807F7"/>
</svg>
